<?xml version="1.0" encoding="UTF-8"?>
<!DOCTYPE svg PUBLIC "-//W3C//DTD SVG 1.1//EN" "http://www.w3.org/Graphics/SVG/1.1/DTD/svg11.dtd">
<svg xmlns="http://www.w3.org/2000/svg" version="1.1" width="1494px" height="412px" style="shape-rendering:geometricPrecision; text-rendering:geometricPrecision; image-rendering:optimizeQuality; fill-rule:evenodd; clip-rule:evenodd" xmlns:xlink="http://www.w3.org/1999/xlink">
<g><path style="opacity:0.991" fill="#04364a" d="M 117.5,-0.5 C 124.833,-0.5 132.167,-0.5 139.5,-0.5C 161.999,2.44451 182.999,9.77785 202.5,21.5C 235.986,55.4863 269.653,89.3196 303.5,123C 305.971,123.706 308.305,123.373 310.5,122C 318.276,113.218 326.942,105.551 336.5,99C 358.429,93.3828 372.596,101.216 379,122.5C 378.996,130.845 376.662,138.512 372,145.5C 359.085,158.149 346.085,170.816 333,183.5C 332.517,184.448 332.351,185.448 332.5,186.5C 331.448,186.351 330.448,186.517 329.5,187C 322.667,193.833 315.833,200.667 309,207.5C 308.51,208.793 308.343,210.127 308.5,211.5C 304.453,211.535 301.786,213.535 300.5,217.5C 297.796,219.239 295.296,221.239 293,223.5C 292.517,224.448 292.351,225.448 292.5,226.5C 291.448,226.351 290.448,226.517 289.5,227C 282.017,235.817 273.85,243.983 265,251.5C 251.618,239.574 238.784,227.074 226.5,214C 225.5,213.333 224.5,213.333 223.5,214C 219.367,217.131 215.534,220.631 212,224.5C 211.186,226.902 211.353,229.235 212.5,231.5C 240.062,258.807 267.728,285.974 295.5,313C 310.177,325.067 327.177,331.567 346.5,332.5C 377.952,330.204 398.785,314.204 409,284.5C 409.882,281.211 410.548,277.877 411,274.5C 411.18,257.123 411.68,239.789 412.5,222.5C 411.095,216.485 413.429,212.652 419.5,211C 435.5,210.333 451.5,210.333 467.5,211C 472.826,212.601 475.826,216.268 476.5,222C 475.173,238.827 475.173,255.66 476.5,272.5C 473.998,284.184 471.498,295.851 469,307.5C 466.804,312.42 464.804,317.42 463,322.5C 458.909,327.918 455.242,333.585 452,339.5C 448.469,342.025 446.135,345.359 445,349.5C 443.667,350.167 442.333,350.833 441,351.5C 439.231,354.29 437.398,357.123 435.5,360C 428.358,364.743 421.358,369.743 414.5,375C 374.546,398.324 333.213,400.657 290.5,382C 280.027,376.531 270.36,369.864 261.5,362C 231.652,331.15 201.319,300.484 170.5,270C 166.164,269.167 164.164,271 164.5,275.5C 159.5,275.833 156.833,278.5 156.5,283.5C 151.588,285.209 147.254,288.042 143.5,292C 123.551,301.819 108.384,296.985 98,277.5C 95.1979,267.83 96.5312,258.83 102,250.5C 137.329,214.504 172.829,179.004 208.5,144C 209.5,143.333 210.5,143.333 211.5,144C 223.415,155.649 235.415,167.316 247.5,179C 254.546,177.123 259.213,172.623 261.5,165.5C 261.423,163.701 260.923,162.034 260,160.5C 235.805,136.639 211.972,112.472 188.5,88C 183.167,83.3333 177.833,78.6667 172.5,74C 162.914,69.8047 153.248,65.8047 143.5,62C 124.135,59.0983 106.135,62.7649 89.5,73C 73.8569,84.4486 65.6902,99.9486 65,119.5C 64.6667,139.5 64.3333,159.5 64,179.5C 63.2858,183.104 61.4525,185.937 58.5,188C 41.5,188.667 24.5,188.667 7.5,188C 2.74959,186.429 0.0829277,183.262 -0.5,178.5C -0.5,160.167 -0.5,141.833 -0.5,123.5C 4.13803,74.3799 27.8047,37.5465 70.5,13C 85.6204,6.141 101.287,1.641 117.5,-0.5 Z"/></g>
<g><path style="opacity:0.994" fill="#04364a" d="M 335.5,-0.5 C 343.833,-0.5 352.167,-0.5 360.5,-0.5C 405.823,6.7444 439.656,30.4111 462,70.5C 469.599,87.7406 474.432,105.574 476.5,124C 475.71,143.151 475.21,162.318 475,181.5C 474.067,185.395 471.567,187.562 467.5,188C 451.5,188.667 435.5,188.667 419.5,188C 416.804,187.31 414.637,185.81 413,183.5C 411.978,159.177 410.978,134.843 410,110.5C 400.311,80.4959 379.644,64.1626 348,61.5C 328.358,62.8242 311.025,69.8242 296,82.5C 294.365,82.1223 292.865,81.4556 291.5,80.5C 278.999,68.4989 266.832,56.1655 255,43.5C 253.863,39.8172 255.03,36.6505 258.5,34C 280.68,14.9137 306.346,3.41373 335.5,-0.5 Z"/></g>
<g><path style="opacity:0.989" fill="#05364a" d="M 125.5,96.5 C 131.611,97.0371 137.277,98.8704 142.5,102C 151.19,109.691 159.523,117.691 167.5,126C 168.833,126.667 170.167,126.667 171.5,126C 175.375,121.957 179.375,118.123 183.5,114.5C 187.699,117.864 191.365,121.698 194.5,126C 193.683,127.49 192.85,128.99 192,130.5C 185.619,135.38 180.119,141.046 175.5,147.5C 163.871,158.96 152.038,170.294 140,181.5C 136,180.167 133.333,177.5 132,173.5C 125.806,167.306 119.64,161.14 113.5,155C 112.552,154.517 111.552,154.351 110.5,154.5C 110.649,153.448 110.483,152.448 110,151.5C 107.819,148.786 105.153,146.786 102,145.5C 92.2252,127.107 95.7252,111.94 112.5,100C 116.86,98.4171 121.194,97.2505 125.5,96.5 Z"/></g>
<g><path style="opacity:0.965" fill="#04364a" d="M 547.5,146.5 C 556.167,146.5 564.833,146.5 573.5,146.5C 573.5,185.5 573.5,224.5 573.5,263.5C 564.833,263.5 556.167,263.5 547.5,263.5C 547.5,224.5 547.5,185.5 547.5,146.5 Z"/></g>
<g><path style="opacity:0.975" fill="#04364a" d="M 1007.5,146.5 C 1015.83,146.5 1024.17,146.5 1032.5,146.5C 1032.33,159.171 1032.5,171.838 1033,184.5C 1046.47,176.554 1059.97,176.721 1073.5,185C 1080.97,191.111 1085.47,198.945 1087,208.5C 1087.5,226.83 1087.67,245.164 1087.5,263.5C 1079.17,263.5 1070.83,263.5 1062.5,263.5C 1062.8,247.471 1062.47,231.471 1061.5,215.5C 1056.91,204.271 1049.25,201.438 1038.5,207C 1035.89,208.938 1034.06,211.438 1033,214.5C 1032.5,230.83 1032.33,247.163 1032.5,263.5C 1024.17,263.5 1015.83,263.5 1007.5,263.5C 1007.5,224.5 1007.5,185.5 1007.5,146.5 Z"/></g>
<g><path style="opacity:0.952" fill="#04364a" d="M 697.5,154.5 C 706.167,154.5 714.833,154.5 723.5,154.5C 723.5,163.167 723.5,171.833 723.5,180.5C 731.167,180.5 738.833,180.5 746.5,180.5C 746.5,187.5 746.5,194.5 746.5,201.5C 738.833,201.5 731.167,201.5 723.5,201.5C 723.333,214.171 723.5,226.838 724,239.5C 725.47,241.152 727.303,242.152 729.5,242.5C 732.848,241.32 736.182,240.487 739.5,240C 742.705,245.41 745.371,251.076 747.5,257C 737.436,265.012 726.102,267.346 713.5,264C 703.773,259.731 698.606,252.231 698,241.5C 697.5,228.171 697.333,214.837 697.5,201.5C 691.833,201.5 686.167,201.5 680.5,201.5C 680.5,194.5 680.5,187.5 680.5,180.5C 686.167,180.5 691.833,180.5 697.5,180.5C 697.5,171.833 697.5,163.167 697.5,154.5 Z"/></g>
<g><path style="opacity:0.958" fill="#04364a" d="M 792.5,177.5 C 818.095,178.598 832.761,191.765 836.5,217C 836.17,224.326 832.503,228.993 825.5,231C 809.823,231.167 794.156,231.667 778.5,232.5C 784.588,242.476 793.255,245.642 804.5,242C 809.214,239.949 813.381,237.115 817,233.5C 822.167,238.667 827.333,243.833 832.5,249C 820.459,263.13 805.126,268.796 786.5,266C 760.299,257.792 749.132,239.959 753,212.5C 758.599,192.056 771.766,180.39 792.5,177.5 Z M 790.5,200.5 C 798.983,199.907 805.316,203.24 809.5,210.5C 799.183,211.666 788.849,211.832 778.5,211C 781.137,205.862 785.137,202.362 790.5,200.5 Z"/></g>
<g><path style="opacity:0.957" fill="#04364a" d="M 951.5,177.5 C 968.667,175.755 983,181.255 994.5,194C 988.546,200.299 982.213,206.132 975.5,211.5C 967.335,202.164 958.002,200.664 947.5,207C 937.718,218.298 938.384,228.965 949.5,239C 959.965,243.625 968.798,241.458 976,232.5C 982.861,238.027 988.861,244.027 994,250.5C 982.144,264.008 967.311,269.175 949.5,266C 921.803,257.121 910.636,238.288 916,209.5C 921.74,191.92 933.574,181.253 951.5,177.5 Z"/></g>
<g><path style="opacity:0.957" fill="#04364a" d="M 1443.5,177.5 C 1469.09,178.598 1483.76,191.765 1487.5,217C 1487.17,224.326 1483.5,228.993 1476.5,231C 1460.82,231.167 1445.16,231.667 1429.5,232.5C 1435.59,242.476 1444.25,245.642 1455.5,242C 1460.21,239.949 1464.38,237.115 1468,233.5C 1473.17,238.667 1478.33,243.833 1483.5,249C 1469.19,265.319 1451.52,270.319 1430.5,264C 1406.26,251.333 1398.09,231.833 1406,205.5C 1413.11,188.717 1425.61,179.384 1443.5,177.5 Z M 1441.5,200.5 C 1449.98,199.907 1456.32,203.24 1460.5,210.5C 1450.17,211.833 1439.83,211.833 1429.5,210.5C 1432.03,205.29 1436.03,201.957 1441.5,200.5 Z"/></g>
<g><path style="opacity:0.961" fill="#04364a" d="M 633.5,178.5 C 657.868,177.703 671.702,189.37 675,213.5C 675.5,230.163 675.667,246.83 675.5,263.5C 666.833,263.5 658.167,263.5 649.5,263.5C 649.667,247.163 649.5,230.83 649,214.5C 646.987,207.49 642.32,203.823 635,203.5C 628.399,204.133 623.732,207.467 621,213.5C 619.575,230.118 619.075,246.785 619.5,263.5C 611.167,263.5 602.833,263.5 594.5,263.5C 594.5,235.833 594.5,208.167 594.5,180.5C 602.5,180.5 610.5,180.5 618.5,180.5C 618.238,181.978 618.571,183.311 619.5,184.5C 623.852,181.503 628.518,179.503 633.5,178.5 Z"/></g>
<g><path style="opacity:0.961" fill="#04364a" d="M 890.5,178.5 C 895.899,178.309 901.233,178.809 906.5,180C 908.651,180.265 910.318,181.265 911.5,183C 908.526,190.757 905.859,198.59 903.5,206.5C 899.746,205.314 895.913,204.314 892,203.5C 885.339,204.154 880.672,207.487 878,213.5C 876.559,230.11 876.059,246.777 876.5,263.5C 868.167,263.5 859.833,263.5 851.5,263.5C 851.5,235.833 851.5,208.167 851.5,180.5C 859.5,180.5 867.5,180.5 875.5,180.5C 875.34,182.199 875.506,183.866 876,185.5C 880.462,182.184 885.295,179.851 890.5,178.5 Z"/></g>
<g><path style="opacity:0.966" fill="#04364a" d="M 1136.5,178.5 C 1146.17,177.144 1155,179.144 1163,184.5C 1163.49,183.207 1163.66,181.873 1163.5,180.5C 1171.5,180.5 1179.5,180.5 1187.5,180.5C 1187.5,208.167 1187.5,235.833 1187.5,263.5C 1179.5,263.5 1171.5,263.5 1163.5,263.5C 1163.66,262.127 1163.49,260.793 1163,259.5C 1151.89,267.324 1140.05,268.49 1127.5,263C 1107.9,253.31 1099.07,237.477 1101,215.5C 1105.23,195.77 1117.07,183.436 1136.5,178.5 Z M 1140.5,203.5 C 1157.66,203.832 1164.83,212.498 1162,229.5C 1156.25,239.784 1147.75,242.951 1136.5,239C 1124.42,230.688 1122.75,220.688 1131.5,209C 1134.6,207.128 1137.6,205.295 1140.5,203.5 Z"/></g>
<g><path style="opacity:0.973" fill="#04364a" d="M 1245.5,178.5 C 1267.15,177.663 1280.65,187.663 1286,208.5C 1286.5,226.83 1286.67,245.164 1286.5,263.5C 1278.17,263.5 1269.83,263.5 1261.5,263.5C 1261.67,247.497 1261.5,231.497 1261,215.5C 1259.25,207.864 1254.42,203.864 1246.5,203.5C 1238.69,204.471 1233.86,208.804 1232,216.5C 1231.5,232.163 1231.33,247.83 1231.5,263.5C 1223.17,263.5 1214.83,263.5 1206.5,263.5C 1206.5,235.833 1206.5,208.167 1206.5,180.5C 1214.17,180.5 1221.83,180.5 1229.5,180.5C 1229.34,182.199 1229.51,183.866 1230,185.5C 1234.7,181.894 1239.87,179.561 1245.5,178.5 Z"/></g>
<g><path style="opacity:0.96" fill="#04364a" d="M 1336.5,178.5 C 1346.29,177.199 1355.29,179.199 1363.5,184.5C 1364.43,183.311 1364.76,181.978 1364.5,180.5C 1372.5,180.5 1380.5,180.5 1388.5,180.5C 1388.67,206.835 1388.5,233.169 1388,259.5C 1384.66,284.506 1370.32,297.173 1345,297.5C 1330.77,297.813 1318.27,293.48 1307.5,284.5C 1311.5,277.16 1316,270.16 1321,263.5C 1331.48,272.781 1343.31,274.948 1356.5,270C 1360.66,267.164 1362.83,263.331 1363,258.5C 1355.34,265.091 1346.51,267.257 1336.5,265C 1311.07,257.226 1299.57,240.059 1302,213.5C 1306.35,194.653 1317.85,182.986 1336.5,178.5 Z M 1341.5,203.5 C 1359.4,203.932 1366.23,212.932 1362,230.5C 1354.85,241.1 1345.69,243.267 1334.5,237C 1323.83,227 1323.83,217 1334.5,207C 1336.93,205.787 1339.26,204.621 1341.5,203.5 Z"/></g>
<g><path style="opacity:0.994" fill="#06364a" d="M -0.5,268.5 C -0.5,252.833 -0.5,237.167 -0.5,221.5C 0.136142,214.373 4.13614,210.873 11.5,211C 26.1667,210.333 40.8333,210.333 55.5,211C 61.2185,212.06 64.0519,215.56 64,221.5C 64.3333,239.167 64.6667,256.833 65,274.5C 69.3198,304.708 86.1532,323.541 115.5,331C 140.392,334.13 162.058,327.296 180.5,310.5C 188.29,317.119 195.957,323.952 203.5,331C 208.316,336.983 213.649,342.483 219.5,347.5C 221.604,349.583 221.938,351.917 220.5,354.5C 185.144,390.097 142.811,401.93 93.5,390C 36.2939,369.914 4.96059,329.414 -0.5,268.5 Z"/></g>
<g><path style="opacity:0.989" fill="#05364a" d="M 334.5,214.5 C 347.546,226.472 360.38,238.805 373,251.5C 376.684,256.723 378.851,262.557 379.5,269C 374.92,289.232 362.253,298.232 341.5,296C 336.433,294.123 331.433,292.29 326.5,290.5C 321.876,283.357 316.21,276.857 309.5,271C 305.204,268.894 302.204,270.228 300.5,275C 298.277,276.733 295.944,278.233 293.5,279.5C 290.074,277.257 286.741,274.757 283.5,272C 282.74,270.559 282.074,269.059 281.5,267.5C 298.8,249.533 316.467,231.866 334.5,214.5 Z"/></g>
<g><path style="opacity:0.966" fill="#09384b" d="M 239.5,411.5 C 238.167,411.5 236.833,411.5 235.5,411.5C 233.709,410.609 231.876,409.609 230,408.5C 225.841,400.121 228.175,394.454 237,391.5C 245.996,392.139 248.996,396.806 246,405.5C 244.506,408.314 242.34,410.314 239.5,411.5 Z"/></g>
</svg>
